<?xml version="1.0" encoding="UTF-8"?>
<!DOCTYPE svg PUBLIC "-//W3C//DTD SVG 1.1//EN" "http://www.w3.org/Graphics/SVG/1.1/DTD/svg11.dtd">
<!-- Creator: CorelDRAW X7 -->
<svg xmlns="http://www.w3.org/2000/svg" xml:space="preserve" width="21.6746mm" height="21.6746mm" version="1.1" style="shape-rendering:geometricPrecision; text-rendering:geometricPrecision; image-rendering:optimizeQuality; fill-rule:evenodd; clip-rule:evenodd"
viewBox="0 0 2167 2167"
 xmlns:xlink="http://www.w3.org/1999/xlink">
 <defs>
  <style type="text/css">
   <![CDATA[
    .fil0 {fill:#009B4C}
    .fil1 {fill:#008FD7}
   ]]>
  </style>
 </defs>
 <g id="Layer_x0020_1">
  <metadata id="CorelCorpID_0Corel-Layer"/>
  <g id="_637172568">
   <path class="fil0" d="M719 1160c92,45 187,58 284,26 109,-26 213,-115 314,-235l-42 -109c-15,-35 -32,-69 -45,-105 -18,-50 -25,-66 -44,-109 -12,-29 -35,-92 -44,-102l-80 178c-9,22 -18,35 -26,56l-54 120c-6,13 -7,18 -13,32 -9,22 -29,58 -37,82l174 -445c-16,-49 -44,-126 -62,-165 -68,163 -279,626 -325,776z"/>
   <path class="fil1" d="M644 1380c-51,-32 -98,-81 -127,-197 87,93 212,135 331,116 171,-61 695,-415 841,-61 -51,7 -100,-2 -148,51 -178,-129 -279,-11 -469,93 -96,49 -193,62 -289,49 -56,-7 -90,-21 -139,-51z"/>
   <path class="fil0" d="M1108 1810c-426,-1 -624,-203 -685,-526 284,346 574,183 775,83 144,-72 264,-29 316,75 -188,35 -288,40 -442,135 172,-22 282,-70 454,-92 -78,244 -234,318 -418,325z"/>
   <path class="fil1" d="M332 1468c97,255 268,417 494,512 553,157 616,-137 900,-468 47,-54 98,-65 130,-71 -250,-50 -648,48 -840,247 179,-42 335,-116 515,-158 -257,688 -897,334 -1199,-62z"/>
   <path class="fil1" d="M1736 741c-59,-274 -376,-664 -768,-616 -918,111 -875,1684 -38,1531 -1229,-419 26,-2301 806,-915z"/>
  </g>
 </g>
</svg>
